<?xml version="1.0" encoding="UTF-8"?>
<svg id="Layer_1" data-name="Layer 1" xmlns="http://www.w3.org/2000/svg" version="1.1" viewBox="0 0 5000 5000">
  <defs>
    <style>
      .cls-1 {
        fill: #f9f8ee;
      }

      .cls-1, .cls-2, .cls-3, .cls-4, .cls-5, .cls-6, .cls-7, .cls-8 {
        stroke-width: 0px;
      }

      .cls-2 {
        fill: #0a0d12;
      }

      .cls-3 {
        fill: #eeeade;
      }

      .cls-4 {
        fill: #090d11;
      }

      .cls-5 {
        fill: #dad6cc;
      }

      .cls-6 {
        fill: #0a0e12;
      }

      .cls-7 {
        fill: #fefefe;
      }

      .cls-8 {
        fill: #fefef5;
      }
    </style>
  </defs>
  <path class="cls-3" d="M4659.05,1235.98v2514.71c-18.4,60.68-3.18,124.58-17.91,185.66-27.52,114.09-52.9,229.2-156.8,304.01-76.4,39.02-112.91,118.73-178.58,171.21-189.14,151.15-398.48,227.68-640.99,226.98-791.55-2.28-1583.12-2.2-2374.67.41-140.36.46-272.06-29.92-402.09-75.62-35.41-12.45-70.46-23.82-108.33-23.87-52.49-10.68-95.38-40.85-133.9-74.66-218.12-191.45-356.43-419.64-355.13-722.73,3.61-840.39,5.9-1680.83-.58-2521.18-3.61-467.73,423.81-861.19,783.17-910.01,73.35-9.96,148.2-13.43,222.71-13.43,794.69-.03,1589.39.39,2384.08-.19,423.23-.31,714.7,205.37,905.04,572.62,46.08,88.9,60.35,184.15,65.48,282.16,1.47,28.03-8.03,57.39,8.5,83.94Z"/>
  <path class="cls-7" d="M4659.05,1235.98c-27.03-142.54-53.44-284.78-128.15-413.08-160.83-276.22-396.29-443.49-711.68-500.42-99.7-18-199.38-16.29-299.45-16.31-731.96-.13-1463.92-1.52-2195.87.82-218.51.7-424.31,50.76-604.21,185.06-266.25,198.76-417.56,458.53-418.52,794.29-2.24,786.31,1.17,1572.63-1.63,2358.93-1.37,385.11,160.39,675.83,484.13,879.78,122.73,33.61,239.8,85.8,365.15,111,12.03,2.42,15.64,14.97,12.93,27.5H283.14c0-1458.3,0-2916.6,0-4374.9,1435.67,0,2871.33.46,4307-1.65,58.99-.09,71.47,11.45,70.69,70.57-3.89,292.76-1.77,585.59-1.77,878.4Z"/>
  <path class="cls-7" d="M4489.77,4216.03c92.46-114.77,132.85-249.81,152.43-392.8,3.4-24.81-5.8-52.28,16.86-72.54,0,287.07-1.07,574.14,1.15,861.19.33,43.1-9.72,53.2-52.84,52.83-269.89-2.28-539.8-1.15-809.71-1.15-3.51-40.45,31.87-36.27,52.74-40.51,240.45-48.83,440.93-161.73,590.05-359.96,13.55-18.01,31.07-33.27,49.33-47.07Z"/>
  <path class="cls-5" d="M4489.77,4216.03c-144.89,249.17-373,373.57-646.14,429.92-16.69,3.44-34.42,1.75-45.97,17.62H1161.77c-127.97-40.89-262.35-64.27-378.1-138.49,76.29-31.71,133.56,29.36,199.37,45.14,103.77,24.88,205.86,42.66,312.88,42.48,809.27-1.38,1618.57,2.39,2427.81-2.52,271.11-1.64,495.23-119.15,671.95-325.98,25.19-29.48,47.04-67.25,94.09-68.17Z"/>
  <path class="cls-4" d="M3726.55,2476.85c26.4,19.83,16.22,49.08,16.26,74.68.5,278.86.72,557.72.03,836.58-.49,197.69-90.23,290.89-280.29,291-659.93.36-1319.85.36-1979.78,0-179.28-.1-271.42-95.04-271.33-281.16.15-305.79,2.13-611.58,3.33-917.36,20.73-24.82,48.45-13.21,72.72-13.23,787.99-.68,1575.99-.64,2363.98-.2,25.08.01,51.79-7.86,75.07,9.7Z"/>
  <path class="cls-4" d="M2827.4,1428.25c259.52-52.64,506.04-102.03,752.17-153.29,34.01-7.08,45.49,3.55,52.13,35.07,17.07,81.08,34.97,162.11,56.54,242.08,10.14,37.61-6.94,42.98-36.62,48.83-162.7,32.08-325.15,65.46-487.51,99.22-27.16,5.65-48.48,2.71-69.75-17.95-83.86-81.49-169.3-161.35-266.96-253.96Z"/>
  <path class="cls-4" d="M1265.41,2081.59c-37.92,2.22-36.97-28.3-42.77-51.95-17.76-72.4-32.22-145.72-52.88-217.26-11.18-38.68-8.11-55.77,36.42-63.66,129.9-23.02,259.19-49.65,388.19-77.39,32.85-7.06,53.62,3.48,75.95,24.97,82.49,79.39,166.37,157.32,259.97,245.45-161.22,35.18-312.34,68.16-463.46,101.14-62.06,39.32-130.97,43.03-201.42,38.7Z"/>
  <polyline class="cls-6" points="1929.05 2082.97 1634.9 2415.09 1233.84 2419.82 1230.17 2102.42"/>
  <path class="cls-2" d="M2008.77,1590.41c136.52-27.66,254.7-50.05,372.04-76.16,46.13-10.27,79.82-3.22,114.9,31.89,78.15,78.23,161.45,151.31,252.09,235.23-144.75,28.52-275.7,54.58-406.81,79.78-13.14,2.53-32.5,5.55-40.19-1.38-95.85-86.48-190.08-174.76-292.03-269.35Z"/>
  <path class="cls-4" d="M2843.23,2076.3c-84.17,112.61-158.94,212.38-233.33,312.42-11.24,15.11-25.45,21.83-43.86,21.96-133.26.9-266.52,1.95-416.22,3.08,84.43-112.72,159.23-212.36,233.71-312.24,11.11-14.9,24.51-22.2,43.47-22.29,133.21-.61,266.42-1.8,416.24-2.93Z"/>
  <path class="cls-4" d="M3743.42,2069.06l-12.96,331.94s-595.19,6.02-840.73,6.73c0,0,196.26-212.64,288.07-312.65,13.7-14.92,30.19-22.24,53.52-22.36,163.89-.84,512.1-3.65,512.1-3.65Z"/>
  <path class="cls-8" d="M1183.55,3450.76v-885.17c2.71.01,5.42.03,8.13.04v887.91c-2.71-.93-5.42-1.85-8.13-2.78Z"/>
  <path class="cls-1" d="M1265.41,2081.59c67.14-12.9,134.28-25.8,201.42-38.7,11.17,1.83,22.33,3.65,33.97,5.56.54,32.01-42.06-1.8-42.5,33.82h355.86c-183.05,3.48-366.3,35.02-548.75-.67Z"/>
</svg>